# xmcd CD database file
#
# Track frame offsets:
#	150
#	13581
#	28072
#	46079
#	66293
#	81187
#	94990
#	106773
#	126452
#	142761
#	161154
#	178860
#	194134
#	207420
#	220651
#
# Disc length: 3174 seconds
#
# Revision: 0
# Processed by: cddbd v1.5.2PL0 Copyright (c) Steve Scherf et al.
# Submitted via: CdAid (MTCDDB.DLL V2003.12.21)
#
DISCID=da0c640f
DTITLE=Bellamy Brothers - The Lost Tracks
DYEAR=2006
DGENRE=Country
TTITLE0=Slippin Away
TTITLE1=They Could Put Me In Jail
TTITLE2=Spiders And Snakes
TTITLE3=Livin In The West
TTITLE4=Inside Of My Guitar
TTITLE5=Lovin On
TTITLE6=Don't Give A Rip
TTITLE7=She Don't Know She's Perfect
TTITLE8=Crossfire
TTITLE9=Satin Sheets
TTITLE10=Let's Fall In Love Again
TTITLE11=When The Music Meant Everything
TTITLE12=Lets Rodeo
TTITLE13=Hillbilly Hell
TTITLE14=Too Much Is Not Enough
EXTD=cse1 ID3G:   2 YEAR: 2006
EXTT0=
EXTT1=
EXTT2=
EXTT3=
EXTT4=
EXTT5=
EXTT6=
EXTT7=
EXTT8=
EXTT9=
EXTT10=
EXTT11=
EXTT12=
EXTT13=
EXTT14=
PLAYORDER=
